<svg width="291" height="301" viewBox="0 0 291 301" fill="none" xmlns="http://www.w3.org/2000/svg">
<path d="M79.4999 73.2984L222.5 31.7984L289 144.798L144.5 184.798L79.4999 73.2984Z" fill="#8DCEF2"/>
<path d="M143 184.298L288.5 143.798V258.798L143 297.798V184.298Z" fill="#8DCEF2"/>
<path d="M3 132.798L143 181.798V298.298L3 245.798V132.798Z" fill="#8DCEF2"/>
<path d="M76 73.7984L144 183.798L2 133.298L76 73.7984Z" fill="#8DCEF2"/>
<path d="M142.5 183.798V297.798" stroke="black" stroke-width="5" stroke-linecap="round"/>
<path d="M3.42554 131.857L77.4255 71.8565" stroke="black" stroke-width="5" stroke-linecap="round"/>
<path d="M76 72.7984L142.15 183.523" stroke="black" stroke-width="5" stroke-linecap="round"/>
<path d="M222 33.7984L288.15 144.523" stroke="black" stroke-width="5" stroke-linecap="round"/>
<path d="M4 246.798L142.88 298.458" stroke="black" stroke-width="5" stroke-linecap="round"/>
<line x1="77.7663" y1="71.7357" x2="221.937" y2="33.0321" stroke="black" stroke-width="5" stroke-linecap="round"/>
<path d="M141.344 298.386L288.343 258.386" stroke="black" stroke-width="5" stroke-linecap="round"/>
<path d="M3.5 132.798L3.5 246.798" stroke="black" stroke-width="5" stroke-linecap="round"/>
<path d="M288 144.798V258.798" stroke="black" stroke-width="5" stroke-linecap="round"/>
</svg>
